

Format                           : MPEG-4
Format profile                   : Base Media / Version 2
Codec ID                         : mp42
File size                        : 48.8 MiB
Duration                         : 3mn 22s
Overall bit rate                 : 2 018 Kbps
Encoded date                     : UTC 2010-12-16 23:29:28
Tagged date                      : UTC 2010-12-16 23:29:28
gsst                             : 0
gstd                             : 202720
gssd                             : BCA9FD842HH1308248119835546
gshh                             :

Video
ID                               : 1
Format                           : AVC
Format/Info                      : Advanced Video Codec
Format profile                   : High@L3.1
Format settings, CABAC           : Yes
Format settings, ReFrames        : 1 frame
Codec ID                         : avc1
Codec ID/Info                    : Advanced Video Coding
Duration                         : 3mn 22s
Bit rate mode                    : Variable
Bit rate                         : 1 889 Kbps
Maximum bit rate                 : 5 984 Kbps
Width                            : 1 280 pixels
Height                           : 720 pixels
Display aspect ratio             : 16:9
Frame rate mode                  : Constant
Frame rate                       : 25.000 fps
Color space                      : YUV
Chroma subsampling               : 4:2:0
Bit depth                        : 8 bits
Scan type                        : Progressive
Bits/(Pixel*Frame)               : 0.082
Stream size                      : 45.6 MiB (94%)
Tagged date                      : UTC 2010-12-16 23:29:34

Audio
ID                               : 2
Format                           : AAC
Format/Info                      : Advanced Audio Codec
Format version                   : Version 4
Format profile                   : LC
Format settings, SBR             : No
Codec ID                         : 40
Duration                         : 3mn 22s
Bit rate mode                    : Variable
Bit rate                         : 125 Kbps
Maximum bit rate                 : 153 Kbps
Channel(s)                       : 2 channels
Channel positions                : Front: L R
Sampling rate                    : 44.1 KHz
Stream size                      : 3.01 MiB (6%)
Title                            : (C) 2007 Google Inc. v08.13.2007.
Encoded date                     : UTC 2010-12-16 23:29:31
Tagged date                      : UTC 2010-12-16 23:29:34



============================= SCREEN SHOT =======================================

                    http://bayimg.com/MaIcBAADL

============================ FOLLOW ME ON TWEETER AND FACEBOOK =================

           http :///#!/ haunting_summer

  http: // www. facebook. com/ pages/ HaUnTiNgSuMMeR-ToRrEnTs/ 192812490771363

=================================================================================

--------------- PLZ RATE +/- THE QUALITY N COMMENT IF POSSIBLE -----------------
